<svg xmlns="http://www.w3.org/2000/svg" width="200" height="200" viewBox="0 0 200 200">
  <title>mob_void_demon</title>
<ellipse cx="100.0" cy="174.0" rx="58.0" ry="12.0" fill="#000000" fill-opacity="0.22"/><path d="M58 92 L18 66 L30 104 L16 118 L44 128 Z" fill="#614488" stroke="#2A1F17" stroke-width="5" stroke-linejoin="round"/><path d="M142 92 L182 66 L170 104 L184 118 L156 128 Z" fill="#614488" stroke="#2A1F17" stroke-width="5" stroke-linejoin="round"/><path d="M100 74 C74 78 60 112 56 170 L144 170 C140 112 126 78 100 74 Z" fill="#7E57C2" stroke="#2A1F17" stroke-width="6.0" stroke-linejoin="round"/><circle cx="100" cy="62" r="26" fill="#614488" stroke="#2A1F17" stroke-width="6.0"/><path d="M80 44 C66 30 64 18 72 10" fill="none" stroke="#614488" stroke-width="8" stroke-linecap="round"/><path d="M120 44 C134 30 136 18 128 10" fill="none" stroke="#614488" stroke-width="8" stroke-linecap="round"/><ellipse cx="91" cy="60" rx="6" ry="9" fill="#CEBFE8"/><ellipse cx="109" cy="60" rx="6" ry="9" fill="#CEBFE8"/><rect x="89.5" y="55" width="3" height="10" rx="1.5" fill="#20161F"/><rect x="107.5" y="55" width="3" height="10" rx="1.5" fill="#20161F"/><path d="M88 76 L96 70 L104 76 L112 70" fill="none" stroke="#2A1F17" stroke-width="4" stroke-linecap="round"/>
</svg>
