<svg xmlns="http://www.w3.org/2000/svg" width="200" height="200" viewBox="0 0 200 200">
  <title>mob_steam_mgner</title>
<ellipse cx="100.0" cy="174.0" rx="52.0" ry="12.0" fill="#000000" fill-opacity="0.22"/><rect x="74" y="150" width="18" height="26" rx="6" fill="#B75434" stroke="#2A1F17" stroke-width="4.5"/><rect x="108" y="150" width="18" height="26" rx="6" fill="#B75434" stroke="#2A1F17" stroke-width="4.5"/><rect x="62" y="84" width="76" height="72" rx="16" fill="#FF7043" stroke="#2A1F17" stroke-width="6.0"/><circle cx="120.0" cy="120.0" r="4.4" fill="#B75434" stroke="#2A1F17" stroke-width="2.1"/><circle cx="114.1" cy="134.1" r="4.4" fill="#B75434" stroke="#2A1F17" stroke-width="2.1"/><circle cx="100.0" cy="140.0" r="4.4" fill="#B75434" stroke="#2A1F17" stroke-width="2.1"/><circle cx="85.9" cy="134.1" r="4.4" fill="#B75434" stroke="#2A1F17" stroke-width="2.1"/><circle cx="80.0" cy="120.0" r="4.4" fill="#B75434" stroke="#2A1F17" stroke-width="2.1"/><circle cx="85.9" cy="105.9" r="4.4" fill="#B75434" stroke="#2A1F17" stroke-width="2.1"/><circle cx="100.0" cy="100.0" r="4.4" fill="#B75434" stroke="#2A1F17" stroke-width="2.1"/><circle cx="114.1" cy="105.9" r="4.4" fill="#B75434" stroke="#2A1F17" stroke-width="2.1"/><circle cx="100.0" cy="120.0" r="16.4" fill="#B75434" stroke="#2A1F17" stroke-width="3.5"/><circle cx="100.0" cy="120.0" r="6.8" fill="#2A1F17" fill-opacity="0.35" stroke="#2A1F17" stroke-width="3.5"/><rect x="78" y="46" width="44" height="40" rx="12" fill="#B75434" stroke="#2A1F17" stroke-width="6.0"/><rect x="80" y="60" width="40" height="10" rx="5" fill="#FFC9B8"/><circle cx="100" cy="40" r="7" fill="#FFC9B8" stroke="#2A1F17" stroke-width="3.5"/><rect x="112" y="98" width="76" height="14" rx="5" fill="#B75434" stroke="#2A1F17" stroke-width="4"/><rect x="112" y="116" width="76" height="14" rx="5" fill="#B75434" stroke="#2A1F17" stroke-width="4"/><circle cx="120" cy="136" r="15" fill="#FFC9B8" stroke="#2A1F17" stroke-width="4.5"/><circle cx="120" cy="136" r="5" fill="#B75434"/>
</svg>
