<svg xmlns="http://www.w3.org/2000/svg" width="200" height="200" viewBox="0 0 200 200">
  <title>mob_cursed_scarecrow</title>
<ellipse cx="100.0" cy="174.0" rx="52.0" ry="12.0" fill="#000000" fill-opacity="0.22"/><rect x="93" y="74" width="14" height="100" rx="4" fill="#614488" stroke="#2A1F17" stroke-width="5"/><rect x="52" y="96" width="96" height="12" rx="5" fill="#614488" stroke="#2A1F17" stroke-width="5"/><path d="M100 78 C72 82 60 118 56 168 L144 168 C140 118 128 82 100 78 Z" fill="#7E57C2" stroke="#2A1F17" stroke-width="6.0" stroke-linejoin="round"/><circle cx="100" cy="60" r="24" fill="#7E57C2" stroke="#2A1F17" stroke-width="6.0"/><path d="M86 52 L98 64 M98 52 L86 64" stroke="#CEBFE8" stroke-width="5" stroke-linecap="round"/><path d="M102 52 L114 64 M114 52 L102 64" stroke="#CEBFE8" stroke-width="5" stroke-linecap="round"/><path d="M90 72 Q100 66 110 72" fill="none" stroke="#2A1F17" stroke-width="4" stroke-linecap="round"/><path d="M56 96 L44 82 M144 96 L156 82 M60 108 L46 108 M140 108 L154 108" stroke="#CEBFE8" stroke-width="5" stroke-linecap="round"/>
</svg>
